<?xml version="1.0" encoding="utf-8"?>
<!-- Uploaded to: SVG Repo, www.svgrepo.com, Generator: SVG Repo Mixer Tools -->
<!DOCTYPE svg PUBLIC "-//W3C//DTD SVG 1.1//EN" "http://www.w3.org/Graphics/SVG/1.1/DTD/svg11.dtd">
<svg fill="#000000" width="800px" height="800px" viewBox="0 0 1000 1000" version="1.1" xmlns="http://www.w3.org/2000/svg" xmlns:xlink="http://www.w3.org/1999/xlink"  enable-background="new 0 0 1000 1000" xml:space="preserve">

<g>
<g transform="translate(0.000000,511.000000) scale(0.100000,-0.100000)">
<path d="M4808.4,4351c-1445.6-362.7-2702.2-679.4-2789.1-702.4l-160.9-43.4V-593.7V-4790l135.4,12.8c71.5,7.7,771.3,61.3,1550.3,114.9c779,56.2,2127.5,153.3,2995.9,217.1s1583.5,114.9,1591.2,114.9c5.1,0,10.2,1874.7,10.2,4165.7v4165.7l-344.8-17.9l-344.8-17.9l-5.1,521l-7.7,523.6L4808.4,4351z M7089.2,4220.8l-7.7-288.6l-1621.8-117.5c-891.4-66.4-1624.4-117.5-1629.5-112.4c-10.2,10.2,3144.1,799.4,3207.9,802C7094.3,4506.8,7096.9,4504.3,7089.2,4220.8z M5743.2,1207c137.9-40.8,286.1-173.7,355-319.3c79.2-168.6,63.8-459.7-30.7-623.2c-66.4-112.4-773.9-945-916.9-1075.3c-148.1-137.9-189-120-715.2,332c-533.8,457.2-584.9,523.6-584.9,784.1c0,214.5,58.7,370.3,196.7,523.6c173.7,191.6,332,265.6,569.6,268.2c132.8,0,217.1-15.3,273.3-46c81.7-43.4,84.3-43.4,194.1,33.2C5288.6,1230,5523.6,1273.4,5743.2,1207z M7937.2-2797.8c0-148.1-7.7-204.3-33.2-204.3c-28.1,0-2390.6-227.3-4768.5-459.7c-429.1-43.4-804.5-76.6-835.2-76.6c-56.2,0-58.7,10.2-58.7,191.5c0,104.7,7.7,191.6,20.4,191.6c28.1,2.6,5634.3,556.8,5657.3,559.3C7929.5-2596.1,7937.2-2685.4,7937.2-2797.8z"/>
</g>
</g>
</svg>