<?xml version="1.0" encoding="utf-8"?>
<!-- Uploaded to: SVG Repo, www.svgrepo.com, Generator: SVG Repo Mixer Tools -->
<!DOCTYPE svg PUBLIC "-//W3C//DTD SVG 1.1//EN" "http://www.w3.org/Graphics/SVG/1.1/DTD/svg11.dtd">
<svg fill="#000000" width="800px" height="800px" viewBox="0 0 1000 1000" version="1.1" xmlns="http://www.w3.org/2000/svg" xmlns:xlink="http://www.w3.org/1999/xlink"  enable-background="new 0 0 1000 1000" xml:space="preserve">

<g>
<g transform="translate(0.000000,511.000000) scale(0.100000,-0.100000)">
<path d="M4957.5,4764.3c-3221.7-235.7-3319.5-245.7-3362.1-298.3c-50.1-62.7-132.9-468.8-190.6-945.2c-55.1-466.3-72.7-1429.1-37.6-2081c27.6-516.5,50.1-807.3,175.5-2256.5c145.4-1667.3,155.5-2562.3,35.1-3500c-47.6-376.1-42.6-391.1,92.8-461.3c57.7-30.1,383.6-10,2447,137.9c1308.8,95.3,2798,203.1,3307,238.2c511.5,37.6,952.7,70.2,980.3,75.2c200.6,40.1,245.7,333.5,245.7,1629.7c2.5,912.6-7.5,1060.5-147.9,2682.7c-145.4,1667.3-150.4,1750-147.9,2645.1c0,920.1,27.6,1266.1,140.4,1787.6c30.1,140.4,55.2,305.9,55.2,368.6c2.5,97.8-7.5,115.3-82.8,168c-47.6,32.6-107.8,55.1-137.9,55.1C8299.6,5007.5,6782.8,4897.2,4957.5,4764.3z M6908.1,3545.8c117.8-60.2,137.9-193.1,45.1-300.9l-55.2-65.2l-1679.8-147.9c-2236.4-198.1-2198.8-195.6-2264-130.4c-115.3,115.3-77.7,288.3,72.7,338.5c47.6,15,3487.5,328.4,3740.7,341C6805.3,3580.9,6870.5,3565.9,6908.1,3545.8z M6308.9,1226.7c293.3-147.9,386.1-556.6,208.1-892.6c-37.6-75.2-381.1-491.4-769.7-937.7l-699.5-802.3l-140.4,120.4C4080-593.6,3651.3-212.5,3598.6-119.7c-87.8,155.4-85.2,426.2,7.5,624.3c243.2,521.5,892.5,717,1216,363.5c52.6-57.7,135.4-165.5,180.5-240.7l85.3-132.9l77.7,142.9c253.2,471.3,559.1,687,927.7,649.4C6161,1279.3,6258.7,1251.7,6308.9,1226.7z M6955.7-2850c80.2-90.2,72.7-193-22.5-270.8c-42.6-35.1-107.8-65.2-142.9-65.2c-37.6,0-890-72.7-1895.4-160.4c-1088.1-95.3-1850.3-152.9-1880.4-140.4c-132.9,50.1-170.5,230.7-72.7,331c52.6,50.1,163,62.7,1955.6,220.6c1045.5,92.8,1923,163,1950.6,158C6875.5-2784.8,6923.2-2817.4,6955.7-2850z"/>
</g>
</g>
</svg>